<?xml version="1.0" standalone="no"?>
<!DOCTYPE svg PUBLIC "-//W3C//DTD SVG 20010904//EN"
 "http://www.w3.org/TR/2001/REC-SVG-20010904/DTD/svg10.dtd">
<svg version="1.0" xmlns="http://www.w3.org/2000/svg"
 width="300.000000pt" height="95.000000pt" viewBox="0 0 300.000000 95.000000"
 preserveAspectRatio="xMidYMid meet">
<metadata>
Created by potrace 1.10, written by Peter Selinger 2001-2011
</metadata>
<g transform="translate(0.000000,95.000000) scale(0.100000,-0.100000)"
fill="#1e90ff" stroke="none">
<path d="M672 874 c-52 -15 -107 -56 -127 -94 -8 -15 -17 -52 -20 -82 -12
-102 54 -178 153 -178 74 0 100 21 126 103 10 33 -10 17 -23 -18 -22 -61 -87
-81 -145 -46 -45 28 -69 75 -69 135 0 111 58 164 182 167 52 1 66 -2 86 -21
l25 -23 0 -224 c0 -264 3 -256 -106 -268 -38 -4 -78 -12 -89 -17 -27 -14 -85
-70 -85 -82 0 -5 15 5 33 22 43 42 81 52 192 52 103 0 112 -4 215 -95 93 -81
134 -103 222 -116 131 -19 249 22 209 74 -35 45 -81 90 -81 81 0 -7 11 -19 25
-28 17 -11 25 -26 25 -46 0 -43 -31 -60 -111 -60 -54 0 -77 6 -129 31 -110 56
-219 190 -221 273 0 29 -1 29 -9 9 -12 -30 10 -100 46 -149 l29 -39 -35 26
c-48 36 -95 59 -120 59 -20 0 -20 1 -5 30 22 43 22 455 -1 488 -16 24 -15 25
41 24 65 0 68 -1 55 -17 -14 -16 -21 -228 -8 -247 4 -7 8 30 8 83 0 159 5 170
98 193 35 9 9 11 -151 12 -127 1 -208 -3 -235 -12z"/>
<path d="M1130 731 c-107 -35 -170 -116 -170 -218 1 -93 59 -172 154 -208 56
-21 125 -16 185 14 42 22 55 17 56 -23 0 -10 47 -62 108 -119 113 -105 123
-109 151 -64 9 14 -7 35 -94 122 -74 74 -111 105 -125 103 -40 -6 -43 14 -11
60 28 39 31 51 31 116 0 53 -5 79 -18 100 -20 30 -11 53 17 43 11 -4 16 -24
19 -69 3 -63 3 -63 5 15 1 42 6 77 10 77 25 0 32 -30 32 -135 0 -115 12 -155
47 -155 13 0 13 -3 3 -16 -8 -9 -25 -14 -44 -12 -30 3 -31 5 -38 62 -10 79
-18 83 -18 9 0 -44 5 -67 19 -84 17 -21 21 -22 57 -11 22 6 55 27 74 47 36 37
53 45 44 20 -10 -25 5 -63 26 -70 31 -10 106 40 132 90 9 15 4 13 -21 -8 -59
-49 -61 -45 -61 128 0 169 -2 175 -54 134 -25 -20 -26 -25 -26 -116 0 -95 0
-95 -34 -129 -38 -38 -48 -41 -70 -18 -13 12 -16 40 -16 138 0 81 -4 126 -12
134 -19 19 -54 14 -86 -13 l-29 -25 -19 21 c-45 50 -161 81 -224 60z m170 -43
c74 -45 103 -100 98 -185 -5 -77 -41 -135 -108 -171 -38 -20 -56 -23 -112 -20
-82 4 -140 40 -178 108 -46 84 -23 196 53 254 46 35 74 45 137 45 46 1 66 -5
110 -31z m379 -153 c0 -70 5 -133 11 -145 9 -16 8 -22 -5 -26 -23 -9 -47 4
-43 24 2 11 -3 27 -11 36 -11 13 -12 19 -3 25 8 5 13 40 13 102 1 88 11 125
29 114 5 -3 8 -61 9 -130z m-171 -308 c56 -57 100 -106 96 -110 -20 -20 -32
-11 -172 120 -57 53 -64 63 -53 77 7 9 16 16 20 16 3 0 53 -46 109 -103z"/>
<path d="M1105 687 c-56 -26 -115 -114 -115 -172 0 -34 26 -92 57 -126 69 -76
192 -84 269 -17 48 42 67 83 67 144 0 62 -22 104 -76 148 -33 26 -48 31 -105
33 -41 2 -79 -2 -97 -10z m160 -16 c69 -32 105 -86 105 -157 0 -153 -191 -232
-303 -126 -41 39 -57 74 -57 127 0 129 135 212 255 156z"/>
<path d="M1253 613 c-43 -30 -127 -101 -104 -88 12 7 138 100 150 111 15 14
-12 0 -46 -23z"/>
<path d="M1815 656 c-25 -25 -45 -48 -45 -52 0 -5 5 -3 12 4 7 7 23 12 35 12
l24 0 -2 -232 c-1 -128 -6 -242 -12 -253 -5 -11 -21 -32 -35 -47 -32 -35 -22
-36 26 -3 41 28 84 31 122 10 38 -22 48 -17 19 8 -42 35 -49 59 -49 161 l0 95
28 -16 c26 -15 31 -15 65 2 57 27 114 88 127 136 20 72 -5 158 -56 198 -40 31
-69 26 -119 -20 l-45 -42 0 42 c0 37 -2 41 -25 41 -16 0 -41 -16 -70 -44z m75
-10 c0 -12 5 -27 11 -33 8 -8 8 -17 0 -31 -17 -32 -14 -154 5 -180 15 -21 15
-25 -1 -42 -13 -14 -16 -37 -14 -121 1 -93 0 -104 -16 -104 -16 0 -17 18 -16
234 2 194 -1 237 -14 257 -14 21 -13 24 7 38 26 18 38 13 38 -18z m172 14 c37
-28 51 -71 46 -138 -3 -40 -11 -69 -27 -91 -29 -40 -36 -35 -17 10 19 45 12
136 -13 169 -11 15 -31 27 -52 30 l-34 5 25 18 c31 22 42 21 72 -3z m-24 -68
c41 -80 1 -212 -65 -212 -45 0 -63 32 -63 113 0 67 2 75 28 99 15 14 34 28 42
30 19 7 47 -8 58 -30z"/>
<path d="M2300 684 c-46 -20 -68 -41 -92 -89 -28 -54 -29 -150 -2 -196 54 -94
185 -86 266 16 l22 28 -48 -28 c-38 -22 -55 -26 -88 -22 -23 3 -49 14 -60 24
-18 18 -16 21 85 121 l104 102 -21 19 c-49 44 -103 52 -166 25z m135 -28 l25
-17 -27 -23 -28 -24 -17 29 c-10 16 -22 29 -27 29 -5 0 -12 7 -15 16 -5 13 0
15 29 11 19 -3 46 -12 60 -21z m-75 -26 c34 -34 22 -68 -50 -143 -32 -34 -37
-34 -45 3 -10 46 4 110 31 137 28 28 38 29 64 3z m-106 -32 c-18 -51 -13 -106
16 -165 16 -34 28 -45 60 -54 52 -16 42 -28 -17 -22 -69 7 -96 36 -103 114 -3
33 -2 63 2 65 4 3 8 13 8 22 0 17 35 82 44 82 3 0 -2 -19 -10 -42z"/>
</g>
</svg>
